<svg aria-hidden="true" style="position:absolute;width:0;height:0" xmlns="http://www.w3.org/2000/svg" overflow="hidden"><defs><symbol id="icon-facebook" viewBox="0 0 32 32"><path fill="var(--color1, #afb1b8)" d="M21.328 5.312h2.923V.224A36.483 36.483 0 0020.143 0h-.156.008c-4.213 0-7.099 2.65-7.099 7.52V12H8.25v5.688h4.646V32h5.699V17.69h4.459l.707-5.688h-5.168V8.08c0-1.643.443-2.768 2.734-2.768z"/></symbol><symbol id="icon-instagram" viewBox="0 0 32 32"><path fill="var(--color1, #afb1b8)" d="M31.968 9.408c-.074-1.701-.349-2.869-.742-3.882a7.839 7.839 0 00-1.85-2.837l-.001-.001A7.906 7.906 0 0026.597.861l-.054-.018C25.524.449 24.362.176 22.661.101 20.949.019 20.405 0 16.059 0c-4.344 0-4.888.019-6.595.094-1.699.074-2.869.349-3.88.742a7.847 7.847 0 00-2.839 1.85l-.001.001A7.9 7.9 0 00.919 5.465l-.018.054C.506 6.538.232 7.7.157 9.401c-.082 1.712-.101 2.256-.101 6.602 0 4.344.019 4.888.094 6.595.075 1.701.35 2.869.744 3.882a7.915 7.915 0 001.849 2.837l.001.001c.8.813 1.77 1.443 2.832 1.843 1.019.395 2.182.67 3.882.744 1.707.075 2.251.094 6.595.094 4.346 0 4.89-.019 6.595-.094 1.701-.074 2.869-.349 3.882-.742a8.237 8.237 0 004.664-4.628l.019-.055c.394-1.019.669-2.182.744-3.882.075-1.707.093-2.251.093-6.595s-.006-4.888-.08-6.595zm-2.88 13.066c-.07 1.563-.333 2.406-.55 2.97a5.341 5.341 0 01-3.004 3.024l-.036.012c-.56.219-1.411.482-2.968.55-1.688.075-2.194.094-6.464.094-4.269 0-4.782-.019-6.464-.094-1.563-.069-2.406-.331-2.97-.55a4.953 4.953 0 01-1.836-1.192l-.001-.001a4.978 4.978 0 01-1.184-1.803L3.6 25.45c-.218-.563-.48-1.413-.549-2.97-.075-1.688-.094-2.195-.094-6.464 0-4.27.019-4.784.094-6.464.069-1.563.331-2.406.549-2.97a4.897 4.897 0 011.198-1.837l.002-.002a4.972 4.972 0 011.806-1.182l.034-.011c.56-.219 1.411-.48 2.968-.55 1.688-.074 2.195-.093 6.464-.093 4.275 0 4.782.019 6.464.093 1.563.069 2.406.331 2.97.55a4.91 4.91 0 011.837 1.194c.531.52.938 1.144 1.195 1.84.218.56.48 1.411.549 2.968.075 1.688.094 2.194.094 6.464 0 4.269-.019 4.768-.094 6.458z"/><path fill="var(--color1, #afb1b8)" d="M16.059 7.782a8.223 8.223 0 00-8.219 8.221v.002a8.222 8.222 0 1016.444 0 8.222 8.222 0 00-8.222-8.222h-.002zm0 13.552a5.333 5.333 0 01.001-10.666h.001a5.334 5.334 0 110 10.668zM26.525 7.458a1.92 1.92 0 01-3.84 0 1.92 1.92 0 013.84 0z"/></symbol><symbol id="icon-logo" viewBox="0 0 32 32"><path fill="var(--color2, #f53838)" d="M27.803 11.803l-.019-.019c-.001-.001-.003-.002-.003-.004L16.001 0 4.221 11.78a.04.04 0 00-.003.004l-.019.019A11.456 11.456 0 0015.686 30.83c.205-.063.425-.063.631 0a11.46 11.46 0 0013.171-5.029 11.458 11.458 0 00-1.683-13.998zM8.409 19.572a.617.617 0 00-.181.436 11.432 11.432 0 001.7 5.883.225.225 0 01-.019.262c-.031.036-.072.061-.117.073s-.094.008-.138-.01a6.874 6.874 0 01-2.201-11.189L16 6.481l8.547 8.546a6.874 6.874 0 01-2.199 11.189.225.225 0 01-.255-.063.224.224 0 01-.019-.262 11.432 11.432 0 001.7-5.883.617.617 0 00-.181-.436l-4.043-4.288a.22.22 0 00-.286 0 .226.226 0 00-.052.282c1.57 2.841.22 6.922-2.032 9.174l-.012.012a1.662 1.662 0 01-2.334 0l-.011-.011c-2.252-2.252-3.602-6.332-2.031-9.173.026-.046.035-.099.025-.15s-.037-.098-.077-.132a.22.22 0 00-.286 0l-4.043 4.287z"/></symbol><symbol id="icon-nav1" viewBox="0 0 31 32"><path fill="var(--color3, #ffecec)" d="M15.714.028c8.679 0 15.714 7.036 15.714 15.714s-7.036 15.714-15.714 15.714C7.035 31.456 0 24.42 0 15.742S7.036.028 15.714.028z"/><path fill="var(--color2, #f53838)" d="M15.714 15.057a2.057 2.057 0 100-4.112 2.057 2.057 0 000 4.111zm-2.915 6.171c-1.041 0-1.918-.875-1.52-1.837a4.812 4.812 0 012.597-2.598 4.804 4.804 0 016.272 2.598c.398.962-.479 1.837-1.52 1.837h-5.83z"/></symbol><symbol id="icon-nav2" viewBox="0 0 32 32"><path fill="var(--color3, #ffecec)" d="M16 .028c8.679 0 15.714 7.036 15.714 15.714S24.678 31.456 16 31.456C7.321 31.456.286 24.42.286 15.742S7.322.028 16 .028z"/><path fill="var(--color2, #f53838)" d="M20 14.028a3.99 3.99 0 00-2.469-3.696A4.001 4.001 0 0012 14.029c0 .793.234 1.53.631 2.151h-.005l3.373 5.277 3.373-5.277h-.004a3.984 3.984 0 00.631-2.151zm-4 1.714a1.714 1.714 0 110-3.429 1.714 1.714 0 010 3.429z"/></symbol><symbol id="icon-nav3" viewBox="0 0 31 32"><path fill="var(--color3, #ffecec)" d="M15.714.028c8.679 0 15.714 7.036 15.714 15.714s-7.036 15.714-15.714 15.714C7.035 31.456 0 24.42 0 15.742S7.036.028 15.714.028z"/><path fill="var(--color2, #f53838)" d="M20.286 10.6h-9.143A1.14 1.14 0 0010 11.743v2.286a1.14 1.14 0 001.143 1.143h9.143a1.14 1.14 0 001.143-1.143v-2.286a1.14 1.14 0 00-1.143-1.143zm-2.857 2.285a.57.57 0 11-1.142 0 .57.57 0 011.142 0zm2.285 0a.57.57 0 11-1.142 0 .57.57 0 011.142 0zm.572 3.429h-9.143A1.14 1.14 0 0010 17.457v2.286a1.14 1.14 0 001.143 1.143h9.143a1.14 1.14 0 001.143-1.143v-2.286a1.14 1.14 0 00-1.143-1.143zM17.429 18.6a.57.57 0 11-1.142 0 .57.57 0 011.142 0zm2.285 0a.57.57 0 11-1.142 0 .57.57 0 011.142 0z"/></symbol><symbol id="icon-ok" viewBox="0 0 32 32"><path fill="var(--color4, #2fab73)" d="M15.516 3.263c-7.058 0-12.8 5.742-12.8 12.8s5.742 12.8 12.8 12.8c7.058 0 12.8-5.742 12.8-12.8s-5.742-12.8-12.8-12.8zm-2.559 18.449L9.11 17.873a1.28 1.28 0 111.808-1.811l2.037 2.033 5.871-5.871a1.28 1.28 0 111.81 1.81l-7.679 7.679z"/></symbol><symbol id="icon-star" viewBox="0 0 32 32"><path fill="var(--color5, #fea250)" d="M27.65 12.081l-7.468-1.085-3.338-6.768a.932.932 0 00-.427-.426.946.946 0 00-1.262.426l-3.338 6.768-7.468 1.085a.945.945 0 00-.52 1.607l5.403 5.268-1.276 7.438a.941.941 0 001.364.992l6.679-3.512 6.679 3.512a.94.94 0 001.365-.991l-1.276-7.438 5.403-5.268a.935.935 0 00.273-.538.938.938 0 00-.794-1.068z"/></symbol><symbol id="icon-twitter" viewBox="0 0 32 32"><path fill="var(--color1, #afb1b8)" d="M32 6.078c-1.1.493-2.376.857-3.713 1.028l-.068.007a6.556 6.556 0 002.873-3.579l.013-.046a12.88 12.88 0 01-4.076 1.573l-.084.014A6.558 6.558 0 0015.6 9.557v.004c0 .52.043 1.021.152 1.496-5.454-.266-10.28-2.88-13.522-6.861a6.524 6.524 0 00-.902 3.313v.001a6.57 6.57 0 002.914 5.451 6.453 6.453 0 01-2.994-.823l.033.017v.072a6.592 6.592 0 005.213 6.44l.043.008a6.403 6.403 0 01-1.662.215h-.061.003c-.419 0-.843-.024-1.242-.112.85 2.598 3.261 4.509 6.13 4.57a13.093 13.093 0 01-8.122 2.8H1.57h.001-.062c-.531 0-1.055-.034-1.569-.099l.061.006c2.826 1.846 6.287 2.944 10.004 2.944h.063-.003c12.072 0 18.672-10 18.672-18.669 0-.288-.01-.57-.024-.848a13.203 13.203 0 003.258-3.355l.03-.047z"/></symbol></defs></svg>